<svg width="160" height="160" viewBox="0 0 160 160" fill="none" xmlns="http://www.w3.org/2000/svg">
<path d="M0.24 87.512L1.872 85.328C2.608 85.808 3.304 86.168 3.96 86.408C4.616 86.632 5.272 86.744 5.928 86.744C6.664 86.744 7.248 86.624 7.68 86.384C8.128 86.144 8.352 85.824 8.352 85.424C8.352 85.104 8.224 84.848 7.968 84.656C7.728 84.464 7.336 84.328 6.792 84.248L4.392 83.888C3.16 83.696 2.216 83.296 1.56 82.688C0.92 82.08 0.6 81.272 0.6 80.264C0.6 79.064 1.072 78.104 2.016 77.384C2.96 76.664 4.224 76.304 5.808 76.304C6.72 76.304 7.608 76.44 8.472 76.712C9.336 76.968 10.16 77.352 10.944 77.864L9.36 79.976C8.672 79.576 8.016 79.28 7.392 79.088C6.768 78.88 6.136 78.776 5.496 78.776C4.904 78.776 4.424 78.888 4.056 79.112C3.704 79.336 3.528 79.632 3.528 80C3.528 80.336 3.656 80.6 3.912 80.792C4.184 80.968 4.624 81.096 5.232 81.176L7.632 81.536C8.848 81.712 9.784 82.112 10.44 82.736C11.112 83.36 11.448 84.152 11.448 85.112C11.448 85.704 11.304 86.256 11.016 86.768C10.744 87.264 10.368 87.696 9.888 88.064C9.408 88.432 8.832 88.72 8.16 88.928C7.488 89.136 6.76 89.24 5.976 89.24C4.84 89.24 3.776 89.096 2.784 88.808C1.792 88.504 0.944 88.072 0.24 87.512ZM13.0851 89V72.2L16.3731 71.48V77.48C16.8531 77.08 17.3811 76.776 17.9571 76.568C18.5491 76.36 19.1891 76.256 19.8771 76.256C21.3171 76.256 22.5011 76.72 23.4291 77.648C24.3571 78.576 24.8211 79.768 24.8211 81.224V89H21.5331V81.704C21.5331 80.92 21.2931 80.288 20.8131 79.808C20.3491 79.328 19.7251 79.088 18.9411 79.088C18.3971 79.088 17.9011 79.2 17.4531 79.424C17.0211 79.632 16.6611 79.936 16.3731 80.336V89H13.0851ZM26.7356 82.76C26.7356 81.848 26.9036 81 27.2396 80.216C27.5916 79.416 28.0636 78.728 28.6556 78.152C29.2636 77.56 29.9756 77.096 30.7916 76.76C31.6076 76.424 32.4796 76.256 33.4076 76.256C34.3356 76.256 35.2076 76.424 36.0236 76.76C36.8396 77.096 37.5436 77.56 38.1356 78.152C38.7436 78.728 39.2156 79.416 39.5516 80.216C39.9036 81 40.0796 81.848 40.0796 82.76C40.0796 83.672 39.9036 84.528 39.5516 85.328C39.2156 86.112 38.7436 86.792 38.1356 87.368C37.5436 87.944 36.8396 88.4 36.0236 88.736C35.2076 89.072 34.3356 89.24 33.4076 89.24C32.4796 89.24 31.6076 89.072 30.7916 88.736C29.9756 88.4 29.2636 87.944 28.6556 87.368C28.0636 86.792 27.5916 86.112 27.2396 85.328C26.9036 84.528 26.7356 83.672 26.7356 82.76ZM33.4076 86.384C34.3676 86.384 35.1836 86.032 35.8556 85.328C36.5276 84.624 36.8636 83.768 36.8636 82.76C36.8636 81.736 36.5276 80.872 35.8556 80.168C35.1836 79.464 34.3676 79.112 33.4076 79.112C32.4476 79.112 31.6316 79.464 30.9596 80.168C30.2876 80.872 29.9516 81.736 29.9516 82.76C29.9516 83.768 30.2876 84.624 30.9596 85.328C31.6316 86.032 32.4476 86.384 33.4076 86.384ZM47.9784 89.168C47.0984 89.168 46.2664 89 45.4824 88.664C44.7144 88.328 44.0424 87.872 43.4664 87.296C42.8904 86.72 42.4344 86.04 42.0984 85.256C41.7784 84.472 41.6184 83.632 41.6184 82.736C41.6184 81.84 41.7864 81 42.1224 80.216C42.4584 79.432 42.9144 78.752 43.4904 78.176C44.0664 77.6 44.7464 77.152 45.5304 76.832C46.3304 76.496 47.1784 76.328 48.0744 76.328C48.6984 76.328 49.3064 76.416 49.8984 76.592C50.4904 76.752 51.0344 77 51.5304 77.336V76.496H54.7704V94.016H51.4824V88.016C50.9864 88.384 50.4344 88.672 49.8264 88.88C49.2344 89.072 48.6184 89.168 47.9784 89.168ZM44.8584 82.736C44.8584 83.744 45.2104 84.6 45.9144 85.304C46.6184 86.008 47.4824 86.36 48.5064 86.36C49.1144 86.36 49.6664 86.256 50.1624 86.048C50.6744 85.84 51.1144 85.544 51.4824 85.16V80.288C51.1304 79.92 50.6904 79.632 50.1624 79.424C49.6504 79.216 49.0984 79.112 48.5064 79.112C47.4664 79.112 46.5944 79.464 45.8904 80.168C45.2024 80.856 44.8584 81.712 44.8584 82.736ZM63.1425 89.168C62.2625 89.168 61.4305 89 60.6465 88.664C59.8785 88.328 59.2065 87.872 58.6305 87.296C58.0545 86.72 57.5985 86.04 57.2625 85.256C56.9425 84.472 56.7825 83.632 56.7825 82.736C56.7825 81.84 56.9505 81 57.2865 80.216C57.6225 79.432 58.0785 78.752 58.6545 78.176C59.2305 77.6 59.9105 77.152 60.6945 76.832C61.4945 76.496 62.3425 76.328 63.2385 76.328C63.8625 76.328 64.4705 76.416 65.0625 76.592C65.6545 76.752 66.1985 77 66.6945 77.336V76.496H69.9345V94.016H66.6465V88.016C66.1505 88.384 65.5985 88.672 64.9905 88.88C64.3985 89.072 63.7825 89.168 63.1425 89.168ZM60.0225 82.736C60.0225 83.744 60.3745 84.6 61.0785 85.304C61.7825 86.008 62.6465 86.36 63.6705 86.36C64.2785 86.36 64.8305 86.256 65.3265 86.048C65.8385 85.84 66.2785 85.544 66.6465 85.16V80.288C66.2945 79.92 65.8545 79.632 65.3265 79.424C64.8145 79.216 64.2625 79.112 63.6705 79.112C62.6305 79.112 61.7585 79.464 61.0545 80.168C60.3665 80.856 60.0225 81.712 60.0225 82.736ZM74.1546 75.008C73.6426 75.008 73.2026 74.824 72.8346 74.456C72.4666 74.088 72.2826 73.648 72.2826 73.136C72.2826 72.624 72.4666 72.184 72.8346 71.816C73.2026 71.448 73.6426 71.264 74.1546 71.264C74.6666 71.264 75.1066 71.448 75.4746 71.816C75.8426 72.184 76.0266 72.624 76.0266 73.136C76.0266 73.648 75.8426 74.088 75.4746 74.456C75.1066 74.824 74.6666 75.008 74.1546 75.008ZM75.8106 76.496V89H72.5226V76.496H75.8106ZM78.3819 89V76.496H81.6699V77.48C82.1499 77.08 82.6779 76.776 83.2539 76.568C83.8459 76.36 84.4859 76.256 85.1739 76.256C86.6139 76.256 87.7979 76.72 88.7259 77.648C89.6539 78.576 90.1179 79.768 90.1179 81.224V89H86.8299V81.704C86.8299 80.92 86.5899 80.288 86.1099 79.808C85.6459 79.328 85.0219 79.088 84.2379 79.088C83.6939 79.088 83.1979 79.2 82.7499 79.424C82.3179 79.632 81.9579 79.936 81.6699 80.336V89H78.3819ZM98.3685 89.072C97.4885 89.072 96.6565 88.904 95.8725 88.568C95.1045 88.232 94.4325 87.776 93.8565 87.2C93.2965 86.624 92.8485 85.952 92.5125 85.184C92.1925 84.4 92.0325 83.56 92.0325 82.664C92.0325 81.784 92.2005 80.96 92.5365 80.192C92.8725 79.408 93.3285 78.728 93.9045 78.152C94.4805 77.576 95.1605 77.128 95.9445 76.808C96.7285 76.472 97.5685 76.304 98.4645 76.304C99.0885 76.304 99.6805 76.392 100.241 76.568C100.817 76.744 101.353 76.992 101.849 77.312V76.496H105.089V89C105.089 90.648 104.553 91.92 103.481 92.816C102.425 93.712 100.897 94.16 98.8965 94.16C97.9365 94.16 97.0085 94.064 96.1125 93.872C95.2325 93.68 94.4245 93.4 93.6885 93.032L94.8405 90.464C95.5285 90.8 96.2005 91.048 96.8565 91.208C97.5125 91.384 98.1685 91.472 98.8245 91.472C99.8005 91.472 100.537 91.256 101.033 90.824C101.545 90.408 101.801 89.792 101.801 88.976V87.944C101.305 88.312 100.761 88.592 100.169 88.784C99.5925 88.976 98.9925 89.072 98.3685 89.072ZM95.2725 82.664C95.2725 83.672 95.6165 84.528 96.3045 85.232C97.0085 85.936 97.8645 86.288 98.8725 86.288C99.4645 86.288 100.009 86.192 100.505 86C101.001 85.792 101.433 85.512 101.801 85.16V80.24C101.449 79.888 101.017 79.616 100.505 79.424C99.9925 79.216 99.4565 79.112 98.8965 79.112C97.8885 79.112 97.0325 79.456 96.3285 80.144C95.6245 80.832 95.2725 81.672 95.2725 82.664ZM118.263 90.92V93.224H106.359V90.92H118.263ZM130.122 90.92V93.224H118.218V90.92H130.122ZM141.982 90.92V93.224H130.078V90.92H141.982ZM153.841 90.92V93.224H141.937V90.92H153.841Z" fill="#8C8C8C"/>
<path d="M116 91V85.1H116.3V91H116ZM117.5 91V85.1H117.8V91H117.5ZM118.1 91V85.1H118.4V91H118.1ZM119.6 91V85.1H119.9V91H119.6ZM121.1 91V85.1H121.4V91H121.1ZM121.7 91V85.1H122V91H121.7ZM122.3 91V85.1H123.2V91H122.3ZM123.5 91V85.1H123.8V91H123.5ZM124.1 91V85.1H124.4V91H124.1ZM125.6 91V85.1H126.5V91H125.6ZM126.801 91V85.1H127.101V91H126.801ZM128.301 91V85.1H128.601V91H128.301ZM128.901 91V85.1H129.201V91H128.901ZM130.401 91V85.1H130.701V91H130.401ZM131.901 91V85.1H132.201V91H131.901ZM132.501 91V85.1H133.401V91H132.501ZM133.701 91V85.1H134.001V91H133.701ZM134.301 91V85.1H135.201V91H134.301ZM135.501 91V85.1H135.801V91H135.501ZM137.001 91V85.1H137.301V91H137.001ZM137.602 91V85.1H137.902V91H137.602ZM139.102 91V85.1H139.402V91H139.102ZM139.702 91V85.1H140.002V91H139.702ZM141.202 91V85.1H141.502V91H141.202ZM142.702 91V85.1H143.002V91H142.702ZM143.302 91V85.1H144.202V91H143.302ZM145.402 91V85.1H146.302V91H145.402ZM146.602 91V85.1H146.902V91H146.602ZM147.202 91V85.1H147.502V91H147.202ZM147.802 91V85.1H148.102V91H147.802Z" fill="#4F4F4F"/>
</svg>
